# Blender v3.5.0 OBJ File: ''
# www.blender.org
mtllib x03_boots_broken.mtl
o Boots
v 0.196557 0.009137 -0.147784
v 0.369785 0.134137 -0.076031
v 0.369785 0.009137 -0.076031
v 0.321949 0.134137 0.039454
v 0.321949 0.009137 0.039454
v 0.148722 0.134137 -0.032300
v 0.148722 0.009137 -0.032300
v 0.196557 0.134137 -0.147784
v -0.109375 0.048253 0.043348
v -0.359375 0.048253 0.043348
v -0.109375 0.048253 0.043348
v -0.109375 -0.057402 0.269925
v -0.109375 -0.057402 0.269925
v -0.359375 -0.057402 0.269925
v -0.359375 -0.057402 0.269925
v -0.359375 0.048253 0.043348
v -0.140625 -0.008392 0.016935
v -0.078125 0.104897 0.069762
v -0.078125 -0.008392 0.016935
v -0.078125 -0.000758 0.296339
v -0.078125 -0.114046 0.243512
v -0.140625 -0.000758 0.296339
v -0.140625 -0.114046 0.243512
v -0.140625 0.104897 0.069762
v -0.328125 0.072758 -0.083147
v -0.140625 0.186046 -0.030320
v -0.140625 0.072758 -0.083147
v -0.140625 0.133219 0.082969
v -0.140625 0.019931 0.030142
v -0.328125 0.133219 0.082969
v -0.328125 0.019931 0.030142
v -0.328125 0.186046 -0.030320
v -0.390625 -0.008392 0.016935
v -0.328125 0.104897 0.069762
v -0.328125 -0.008392 0.016935
v -0.328125 -0.000758 0.296339
v -0.328125 -0.114046 0.243512
v -0.390625 -0.000758 0.296339
v -0.390625 -0.114046 0.243512
v -0.390625 0.104897 0.069762
v -0.359375 -0.014056 0.014293
v -0.109375 0.099232 0.067121
v -0.109375 -0.014056 0.014293
v -0.109375 -0.006422 0.293698
v -0.109375 -0.119711 0.240870
v -0.359375 -0.006422 0.293698
v -0.359375 -0.119711 0.240870
v -0.359375 0.099232 0.067121
v -0.359375 -0.114046 0.243512
v -0.109375 -0.000758 0.296339
v -0.109375 -0.114046 0.243512
v -0.109375 -0.027171 0.352983
v -0.109375 -0.140460 0.300156
v -0.359375 -0.027171 0.352983
v -0.359375 -0.140460 0.300156
v -0.359375 -0.000758 0.296339
v -0.359375 0.070849 -0.152998
v -0.109375 0.184138 -0.100171
v -0.109375 0.070849 -0.152998
v -0.109375 0.104897 0.069762
v -0.109375 -0.008392 0.016935
v -0.359375 0.104897 0.069762
v -0.359375 -0.008392 0.016935
v -0.359375 0.184138 -0.100171
v -0.165625 0.044492 -0.096327
v -0.103125 0.101137 -0.069914
v -0.103125 0.044492 -0.096327
v -0.103125 0.074723 -0.013269
v -0.103125 0.018079 -0.039683
v -0.165625 0.074723 -0.013269
v -0.165625 0.018079 -0.039683
v -0.165625 0.101137 -0.069914
v -0.365625 0.044492 -0.096327
v -0.303125 0.101137 -0.069914
v -0.303125 0.044492 -0.096327
v -0.303125 0.074723 -0.013269
v -0.303125 0.018079 -0.039683
v -0.365625 0.074723 -0.013269
v -0.365625 0.018079 -0.039683
v -0.365625 0.101137 -0.069914
v -0.296875 0.079155 -0.156021
v -0.171875 0.192444 -0.103194
v -0.171875 0.079155 -0.156021
v -0.171875 0.113203 0.066739
v -0.171875 -0.000086 0.013912
v -0.296875 0.113203 0.066739
v -0.296875 -0.000086 0.013912
v -0.296875 0.192444 -0.103194
v -0.296881 0.081064 -0.086170
v -0.171881 0.194352 -0.033343
v -0.171881 0.081064 -0.086170
v -0.171881 0.141525 0.079946
v -0.171881 0.028236 0.027119
v -0.296881 0.141525 0.079946
v -0.296881 0.028236 0.027119
v -0.296881 0.194352 -0.033343
v -0.296875 -0.070609 0.298248
v -0.171875 0.042680 0.351075
v -0.171875 -0.070609 0.298248
v -0.171875 0.016266 0.407719
v -0.171875 -0.097022 0.354892
v -0.296875 0.016266 0.407719
v -0.296875 -0.097022 0.354892
v -0.296875 0.042680 0.351075
v 0.350820 0.040387 0.051412
v 0.119850 0.040387 -0.044258
v 0.350820 0.040387 0.051412
v 0.255150 0.040387 0.282382
v 0.255150 0.040387 0.282382
v 0.024180 0.040387 0.186712
v 0.024180 0.040387 0.186712
v 0.119850 0.040387 -0.044258
v 0.119850 -0.028363 -0.044258
v 0.350820 0.096637 0.051412
v 0.350820 -0.028363 0.051412
v 0.255150 0.096637 0.282382
v 0.255150 -0.028363 0.282382
v 0.024180 0.096637 0.186712
v 0.024180 -0.028363 0.186712
v 0.119850 0.096637 -0.044258
v 0.191604 -0.022113 -0.217486
v 0.422574 0.102887 -0.121815
v 0.422574 -0.022113 -0.121815
v 0.350820 0.102887 0.051412
v 0.350820 -0.022113 0.051412
v 0.119850 0.102887 -0.044258
v 0.119850 -0.022113 -0.044258
v 0.191604 0.102887 -0.217486
v 0.161912 -0.022051 -0.162135
v 0.219654 0.040449 -0.138217
v 0.219654 -0.022051 -0.138217
v 0.195736 0.040449 -0.080475
v 0.195736 -0.022051 -0.080475
v 0.137994 0.040449 -0.104393
v 0.137994 -0.022051 -0.104393
v 0.161912 0.040449 -0.162135
v 0.346688 -0.022051 -0.085598
v 0.404430 0.040449 -0.061681
v 0.404430 -0.022051 -0.061681
v 0.380512 0.040449 -0.003938
v 0.380512 -0.022051 -0.003938
v 0.322770 0.040449 -0.027856
v 0.322770 -0.022051 -0.027856
v 0.346688 0.040449 -0.085598
v 0.251738 -0.018988 -0.199342
v 0.367223 0.106012 -0.151507
v 0.367223 -0.018988 -0.151507
v 0.295470 0.106012 0.021721
v 0.295470 -0.018988 0.021721
v 0.179985 0.106012 -0.026115
v 0.179985 -0.018988 -0.026115
v 0.251738 0.106012 -0.199342
v 0.227826 0.074762 -0.141597
v 0.343311 0.137262 -0.093762
v 0.343311 0.074762 -0.093762
v 0.295475 0.137262 0.021723
v 0.295475 0.074762 0.021723
v 0.179991 0.137262 -0.026113
v 0.179991 0.074762 -0.026113
v 0.227826 0.137262 -0.141597
v 0.090979 -0.009613 -0.056217
v 0.148722 0.115387 -0.032300
v 0.148722 -0.009613 -0.032300
v 0.053051 0.115387 0.198670
v 0.053051 -0.009613 0.198670
v -0.004692 0.115387 0.174753
v -0.004692 -0.009613 0.174753
v 0.090979 0.115387 -0.056217
v 0.321949 -0.022113 0.039454
v 0.379692 0.102887 0.063371
v 0.379692 -0.022113 0.063371
v 0.284021 0.102887 0.294341
v 0.284021 -0.022113 0.294341
v 0.226278 0.102887 0.270424
v 0.226278 -0.022113 0.270424
v 0.321949 0.102887 0.039454
v 0.024180 -0.022113 0.186712
v 0.255150 0.102887 0.282382
v 0.255150 -0.022113 0.282382
v 0.231232 0.102887 0.340125
v 0.231232 -0.022113 0.340125
v 0.000262 0.102887 0.244454
v 0.000262 -0.022113 0.244454
v 0.024180 0.102887 0.186712
v 0.069963 0.040387 0.239500
v 0.185448 0.165387 0.287336
v 0.185448 0.040387 0.287336
v 0.161530 0.165387 0.345078
v 0.161530 0.040387 0.345078
v 0.046046 0.165387 0.297243
v 0.046046 0.040387 0.297243
v 0.069963 0.165387 0.239500
vt 0.648438 0.500000
vt 0.625000 0.515625
vt 0.625000 0.500000
vt 0.609375 0.515625
vt 0.609375 0.500000
vt 0.687500 0.500000
vt 0.664062 0.515625
vt 0.664062 0.500000
vt 0.648438 0.515625
vt 0.625000 0.531250
vt 0.648438 0.531250
vt 0.671875 0.515625
vt 0.648438 0.531250
vt 0.671875 0.531250
vt 0.437500 0.765625
vt 0.468750 0.765625
vt 0.437500 0.765625
vt 0.406250 0.765625
vt 0.406250 0.765625
vt 0.500000 0.765625
vt 0.531250 0.765625
vt 0.500000 0.765625
vt 0.468750 0.765625
vt 0.437500 0.796875
vt 0.468750 0.796875
vt 0.468750 0.765625
vt 0.500000 0.796875
vt 0.500000 0.765625
vt 0.226562 0.414062
vt 0.218750 0.429688
vt 0.218750 0.414062
vt 0.187500 0.429688
vt 0.187500 0.414062
vt 0.265625 0.414062
vt 0.257812 0.429688
vt 0.257812 0.414062
vt 0.226562 0.429688
vt 0.218750 0.460938
vt 0.226562 0.460938
vt 0.226562 0.429688
vt 0.234375 0.460938
vt 0.234375 0.429688
vt 0.648438 0.500000
vt 0.625000 0.515625
vt 0.625000 0.500000
vt 0.609375 0.515625
vt 0.609375 0.500000
vt 0.687500 0.500000
vt 0.664062 0.515625
vt 0.664062 0.500000
vt 0.648438 0.515625
vt 0.625000 0.531250
vt 0.648438 0.531250
vt 0.648438 0.515625
vt 0.671875 0.531250
vt 0.671875 0.515625
vt 0.226562 0.414062
vt 0.218750 0.429688
vt 0.218750 0.414062
vt 0.187500 0.429688
vt 0.187500 0.414062
vt 0.265625 0.414062
vt 0.257812 0.429688
vt 0.257812 0.414062
vt 0.226562 0.429688
vt 0.218750 0.460938
vt 0.226562 0.460938
vt 0.226562 0.429688
vt 0.234375 0.460938
vt 0.234375 0.429688
vt 0.437500 0.671875
vt 0.406250 0.687500
vt 0.406250 0.671875
vt 0.375000 0.687500
vt 0.375000 0.671875
vt 0.500000 0.671875
vt 0.468750 0.687500
vt 0.468750 0.671875
vt 0.437500 0.687500
vt 0.406250 0.718750
vt 0.437500 0.718750
vt 0.437500 0.687500
vt 0.468750 0.718750
vt 0.468750 0.687500
vt 0.460938 0.359375
vt 0.429688 0.375000
vt 0.429688 0.359375
vt 0.421875 0.375000
vt 0.421875 0.359375
vt 0.500000 0.359375
vt 0.468750 0.375000
vt 0.468750 0.359375
vt 0.460938 0.375000
vt 0.429688 0.382812
vt 0.460938 0.382812
vt 0.460938 0.375000
vt 0.492188 0.382812
vt 0.492188 0.375000
vt 0.054688 0.492188
vt 0.023438 0.507812
vt 0.023438 0.492188
vt 0.000000 0.507812
vt 0.000000 0.492188
vt 0.109375 0.492188
vt 0.078125 0.507812
vt 0.078125 0.492188
vt 0.054688 0.507812
vt 0.023438 0.531250
vt 0.054688 0.531250
vt 0.054688 0.507812
vt 0.085938 0.531250
vt 0.085938 0.507812
vt 0.750000 0.781250
vt 0.742188 0.789062
vt 0.742188 0.781250
vt 0.734375 0.789062
vt 0.734375 0.781250
vt 0.765625 0.781250
vt 0.757812 0.789062
vt 0.757812 0.781250
vt 0.750000 0.789062
vt 0.742188 0.796875
vt 0.750000 0.796875
vt 0.750000 0.789062
vt 0.757812 0.796875
vt 0.757812 0.789062
vt 0.750000 0.781250
vt 0.742188 0.789062
vt 0.742188 0.781250
vt 0.734375 0.789062
vt 0.734375 0.781250
vt 0.765625 0.781250
vt 0.757812 0.789062
vt 0.757812 0.781250
vt 0.750000 0.789062
vt 0.742188 0.796875
vt 0.750000 0.796875
vt 0.750000 0.789062
vt 0.757812 0.796875
vt 0.757812 0.789062
vt 0.460938 0.382812
vt 0.445312 0.398438
vt 0.445312 0.382812
vt 0.421875 0.398438
vt 0.421875 0.382812
vt 0.500000 0.382812
vt 0.484375 0.398438
vt 0.484375 0.382812
vt 0.460938 0.398438
vt 0.445312 0.421875
vt 0.460938 0.421875
vt 0.460938 0.398438
vt 0.476562 0.421875
vt 0.476562 0.398438
vt 0.687500 0.703125
vt 0.671875 0.718750
vt 0.671875 0.703125
vt 0.656250 0.718750
vt 0.656250 0.703125
vt 0.718750 0.703125
vt 0.703125 0.718750
vt 0.703125 0.703125
vt 0.687500 0.718750
vt 0.671875 0.734375
vt 0.687500 0.734375
vt 0.687500 0.718750
vt 0.703125 0.734375
vt 0.703125 0.718750
vt 0.023438 0.273438
vt 0.007812 0.289062
vt 0.007812 0.273438
vt 0.000000 0.289062
vt 0.000000 0.273438
vt 0.046875 0.273438
vt 0.031250 0.289062
vt 0.031250 0.273438
vt 0.023438 0.289062
vt 0.007812 0.296875
vt 0.023438 0.296875
vt 0.023438 0.289062
vt 0.039062 0.296875
vt 0.039062 0.289062
vt 0.437500 0.765625
vt 0.468750 0.765625
vt 0.437500 0.765625
vt 0.406250 0.765625
vt 0.406250 0.765625
vt 0.500000 0.765625
vt 0.531250 0.765625
vt 0.500000 0.765625
vt 0.468750 0.765625
vt 0.468750 0.796875
vt 0.468750 0.765625
vt 0.500000 0.796875
vt 0.500000 0.765625
vt 0.437500 0.671875
vt 0.406250 0.687500
vt 0.406250 0.671875
vt 0.375000 0.687500
vt 0.375000 0.671875
vt 0.500000 0.671875
vt 0.468750 0.687500
vt 0.468750 0.671875
vt 0.437500 0.687500
vt 0.437500 0.718750
vt 0.437500 0.687500
vt 0.468750 0.718750
vt 0.468750 0.687500
vt 0.054688 0.492188
vt 0.023438 0.507812
vt 0.023438 0.492188
vt 0.000000 0.507812
vt 0.000000 0.492188
vt 0.109375 0.492188
vt 0.078125 0.507812
vt 0.078125 0.492188
vt 0.054688 0.507812
vt 0.023438 0.531250
vt 0.054688 0.531250
vt 0.054688 0.507812
vt 0.085938 0.531250
vt 0.085938 0.507812
vt 0.750000 0.781250
vt 0.742188 0.789062
vt 0.742188 0.781250
vt 0.734375 0.789062
vt 0.734375 0.781250
vt 0.765625 0.781250
vt 0.757812 0.789062
vt 0.757812 0.781250
vt 0.750000 0.789062
vt 0.750000 0.796875
vt 0.750000 0.789062
vt 0.757812 0.796875
vt 0.757812 0.789062
vt 0.750000 0.781250
vt 0.742188 0.789062
vt 0.742188 0.781250
vt 0.734375 0.789062
vt 0.734375 0.781250
vt 0.765625 0.781250
vt 0.757812 0.789062
vt 0.757812 0.781250
vt 0.750000 0.789062
vt 0.742188 0.796875
vt 0.750000 0.796875
vt 0.757812 0.789062
vt 0.750000 0.796875
vt 0.757812 0.796875
vt 0.226562 0.375000
vt 0.210938 0.390625
vt 0.210938 0.375000
vt 0.187500 0.390625
vt 0.187500 0.375000
vt 0.265625 0.375000
vt 0.250000 0.390625
vt 0.250000 0.375000
vt 0.226562 0.390625
vt 0.210938 0.414062
vt 0.226562 0.414062
vt 0.226562 0.390625
vt 0.242188 0.414062
vt 0.242188 0.390625
vt 0.375000 0.304688
vt 0.359375 0.312500
vt 0.359375 0.304688
vt 0.343750 0.312500
vt 0.343750 0.304688
vt 0.406250 0.304688
vt 0.390625 0.312500
vt 0.390625 0.304688
vt 0.375000 0.312500
vt 0.375000 0.328125
vt 0.375000 0.312500
vt 0.390625 0.328125
vt 0.390625 0.312500
vt 0.226562 0.414062
vt 0.218750 0.429688
vt 0.218750 0.414062
vt 0.187500 0.429688
vt 0.187500 0.414062
vt 0.265625 0.414062
vt 0.257812 0.429688
vt 0.257812 0.414062
vt 0.226562 0.429688
vt 0.218750 0.460938
vt 0.226562 0.460938
vt 0.234375 0.429688
vt 0.226562 0.460938
vt 0.234375 0.460938
vt 0.226562 0.414062
vt 0.218750 0.429688
vt 0.218750 0.414062
vt 0.187500 0.429688
vt 0.187500 0.414062
vt 0.265625 0.414062
vt 0.257812 0.429688
vt 0.257812 0.414062
vt 0.226562 0.429688
vt 0.218750 0.460938
vt 0.226562 0.460938
vt 0.234375 0.429688
vt 0.226562 0.460938
vt 0.234375 0.460938
vt 0.460938 0.359375
vt 0.429688 0.375000
vt 0.429688 0.359375
vt 0.421875 0.375000
vt 0.421875 0.359375
vt 0.500000 0.359375
vt 0.468750 0.375000
vt 0.468750 0.359375
vt 0.460938 0.375000
vt 0.429688 0.382812
vt 0.460938 0.382812
vt 0.460938 0.375000
vt 0.492188 0.382812
vt 0.492188 0.375000
vt 0.023438 0.273438
vt 0.007812 0.289062
vt 0.007812 0.273438
vt 0.000000 0.289062
vt 0.000000 0.273438
vt 0.046875 0.273438
vt 0.031250 0.289062
vt 0.031250 0.273438
vt 0.023438 0.289062
vt 0.007812 0.296875
vt 0.023438 0.296875
vt 0.023438 0.289062
vt 0.039062 0.296875
vt 0.039062 0.289062
vt 0.687500 0.515625
vt 0.648438 0.515625
vt 0.531250 0.765625
vt 0.468750 0.796875
vt 0.265625 0.429688
vt 0.226562 0.460938
vt 0.687500 0.515625
vt 0.648438 0.531250
vt 0.265625 0.429688
vt 0.226562 0.460938
vt 0.500000 0.687500
vt 0.437500 0.718750
vt 0.500000 0.375000
vt 0.460938 0.382812
vt 0.109375 0.507812
vt 0.054688 0.531250
vt 0.765625 0.789062
vt 0.750000 0.796875
vt 0.765625 0.789062
vt 0.750000 0.796875
vt 0.500000 0.398438
vt 0.460938 0.421875
vt 0.718750 0.718750
vt 0.687500 0.734375
vt 0.046875 0.289062
vt 0.023438 0.296875
vt 0.531250 0.765625
vt 0.437500 0.796875
vt 0.468750 0.796875
vt 0.500000 0.687500
vt 0.406250 0.718750
vt 0.437500 0.718750
vt 0.109375 0.507812
vt 0.054688 0.531250
vt 0.765625 0.789062
vt 0.742188 0.796875
vt 0.750000 0.796875
vt 0.765625 0.789062
vt 0.750000 0.789062
vt 0.265625 0.390625
vt 0.226562 0.414062
vt 0.406250 0.312500
vt 0.359375 0.328125
vt 0.375000 0.328125
vt 0.265625 0.429688
vt 0.226562 0.429688
vt 0.265625 0.429688
vt 0.226562 0.429688
vt 0.500000 0.375000
vt 0.460938 0.382812
vt 0.046875 0.289062
vt 0.023438 0.296875
vn 0.3827 -0.0000 -0.9239
vn 0.9239 0.0000 0.3827
vn -0.3827 -0.0000 0.9239
vn -0.9239 -0.0000 -0.3827
vn -0.0000 1.0000 -0.0000
vn -0.0000 -1.0000 0.0000
vn -1.0000 0.0000 -0.0000
vn 0.0000 0.0000 1.0000
vn 0.0000 0.7274 -0.6862
vn 0.3134 0.7568 -0.5736
vn 1.0000 0.0000 -0.0000
vn 0.0665 0.1605 -0.9848
vn 0.0000 0.9063 0.4226
vn 0.0000 -0.9063 -0.4226
vn 0.0000 0.4226 -0.9063
vn 0.0000 -0.4226 0.9063
vn 0.9659 0.0000 0.2588
vn 0.1803 -0.0747 -0.9808
vn 0.7682 -0.3182 -0.5556
vn -0.9659 -0.0000 -0.2588
usemtl m_48a60bd7-7f66-4908-49e1-bb96354a2043.002
s 1
f 1/1/1 2/2/1 3/3/1
f 3/3/2 4/4/2 5/5/2
f 5/6/3 6/7/3 7/8/3
f 7/8/4 8/9/4 1/1/4
f 4/10/5 8/9/5 6/11/5
f 1/12/6 5/13/6 7/14/6
f 9/15/7 10/16/7 11/17/8
f 12/18/9 11/17/10 13/19/8
f 14/20/11 13/21/11 15/22/8
f 16/23/10 15/22/12 10/16/8
f 13/24/13 10/16/13 15/25/13
f 9/26/14 14/27/14 16/28/14
f 17/29/15 18/30/15 19/31/15
f 19/31/11 20/32/11 21/33/11
f 21/34/16 22/35/16 23/36/16
f 23/36/7 24/37/7 17/29/7
f 20/38/13 24/37/13 22/39/13
f 19/40/14 23/41/14 17/42/14
f 25/43/15 26/44/15 27/45/15
f 27/45/11 28/46/11 29/47/11
f 29/48/16 30/49/16 31/50/16
f 31/50/7 32/51/7 25/43/7
f 28/52/13 32/51/13 30/53/13
f 27/54/14 31/55/14 25/56/14
f 33/57/15 34/58/15 35/59/15
f 35/59/11 36/60/11 37/61/11
f 37/62/16 38/63/16 39/64/16
f 39/64/7 40/65/7 33/57/7
f 36/66/13 40/65/13 38/67/13
f 35/68/14 39/69/14 33/70/14
f 41/71/15 42/72/15 43/73/15
f 43/73/11 44/74/11 45/75/11
f 45/76/16 46/77/16 47/78/16
f 47/78/7 48/79/7 41/71/7
f 44/80/13 48/79/13 46/81/13
f 43/82/14 47/83/14 41/84/14
f 49/85/15 50/86/15 51/87/15
f 51/87/11 52/88/11 53/89/11
f 53/90/16 54/91/16 55/92/16
f 55/92/7 56/93/7 49/85/7
f 52/94/13 56/93/13 54/95/13
f 51/96/14 55/97/14 49/98/14
f 57/99/15 58/100/15 59/101/15
f 59/101/11 60/102/11 61/103/11
f 61/104/16 62/105/16 63/106/16
f 63/106/7 64/107/7 57/99/7
f 60/108/13 64/107/13 62/109/13
f 59/110/14 63/111/14 57/112/14
f 65/113/15 66/114/15 67/115/15
f 67/115/11 68/116/11 69/117/11
f 69/118/16 70/119/16 71/120/16
f 65/113/7 70/119/7 72/121/7
f 68/122/13 72/121/13 70/123/13
f 67/124/14 71/125/14 65/126/14
f 73/127/15 74/128/15 75/129/15
f 75/129/11 76/130/11 77/131/11
f 77/132/16 78/133/16 79/134/16
f 73/127/7 78/133/7 80/135/7
f 76/136/13 80/135/13 78/137/13
f 75/138/14 79/139/14 73/140/14
f 81/141/15 82/142/15 83/143/15
f 83/143/11 84/144/11 85/145/11
f 85/146/16 86/147/16 87/148/16
f 87/148/7 88/149/7 81/141/7
f 84/150/13 88/149/13 86/151/13
f 83/152/14 87/153/14 81/154/14
f 89/155/15 90/156/15 91/157/15
f 91/157/11 92/158/11 93/159/11
f 93/160/16 94/161/16 95/162/16
f 95/162/7 96/163/7 89/155/7
f 92/164/13 96/163/13 94/165/13
f 91/166/14 95/167/14 89/168/14
f 97/169/15 98/170/15 99/171/15
f 99/171/11 100/172/11 101/173/11
f 101/174/16 102/175/16 103/176/16
f 103/176/7 104/177/7 97/169/7
f 100/178/13 104/177/13 102/179/13
f 99/180/14 103/181/14 97/182/14
f 105/183/8 106/184/17 107/185/8
f 108/186/18 107/185/19 109/187/8
f 110/188/8 109/189/20 111/190/8
f 112/191/19 111/190/18 106/184/8
f 111/192/5 107/185/5 106/184/5
f 105/193/6 110/194/6 112/195/6
f 113/196/1 114/197/1 115/198/1
f 115/198/2 116/199/2 117/200/2
f 117/201/3 118/202/3 119/203/3
f 119/203/4 120/204/4 113/196/4
f 118/205/5 114/197/5 120/204/5
f 115/206/6 119/207/6 113/208/6
f 121/209/1 122/210/1 123/211/1
f 123/211/2 124/212/2 125/213/2
f 125/214/3 126/215/3 127/216/3
f 127/216/4 128/217/4 121/209/4
f 124/218/5 128/217/5 126/219/5
f 123/220/6 127/221/6 121/222/6
f 129/223/1 130/224/1 131/225/1
f 131/225/2 132/226/2 133/227/2
f 133/228/3 134/229/3 135/230/3
f 135/230/4 136/231/4 129/223/4
f 134/232/5 130/224/5 136/231/5
f 131/233/6 135/234/6 129/235/6
f 137/236/1 138/237/1 139/238/1
f 139/238/2 140/239/2 141/240/2
f 141/241/3 142/242/3 143/243/3
f 143/243/4 144/244/4 137/236/4
f 140/245/5 144/244/5 142/246/5
f 137/247/6 141/248/6 143/249/6
f 145/250/1 146/251/1 147/252/1
f 147/252/2 148/253/2 149/254/2
f 149/255/3 150/256/3 151/257/3
f 151/257/4 152/258/4 145/250/4
f 148/259/5 152/258/5 150/260/5
f 147/261/6 151/262/6 145/263/6
f 153/264/1 154/265/1 155/266/1
f 155/266/2 156/267/2 157/268/2
f 157/269/3 158/270/3 159/271/3
f 159/271/4 160/272/4 153/264/4
f 158/273/5 154/265/5 160/272/5
f 155/274/6 159/275/6 153/276/6
f 161/277/1 162/278/1 163/279/1
f 163/279/2 164/280/2 165/281/2
f 165/282/3 166/283/3 167/284/3
f 167/284/4 168/285/4 161/277/4
f 164/286/5 168/285/5 166/287/5
f 161/288/6 165/289/6 167/290/6
f 169/291/1 170/292/1 171/293/1
f 171/293/2 172/294/2 173/295/2
f 173/296/3 174/297/3 175/298/3
f 175/298/4 176/299/4 169/291/4
f 172/300/5 176/299/5 174/301/5
f 169/302/6 173/303/6 175/304/6
f 177/305/1 178/306/1 179/307/1
f 179/307/2 180/308/2 181/309/2
f 181/310/3 182/311/3 183/312/3
f 183/312/4 184/313/4 177/305/4
f 180/314/5 184/313/5 182/315/5
f 179/316/6 183/317/6 177/318/6
f 185/319/1 186/320/1 187/321/1
f 187/321/2 188/322/2 189/323/2
f 189/324/3 190/325/3 191/326/3
f 191/326/4 192/327/4 185/319/4
f 188/328/5 192/327/5 190/329/5
f 187/330/6 191/331/6 185/332/6
f 1/1/1 8/9/1 2/2/1
f 3/3/2 2/2/2 4/4/2
f 5/6/3 4/333/3 6/7/3
f 7/8/4 6/7/4 8/9/4
f 4/10/5 2/2/5 8/9/5
f 1/12/6 3/334/6 5/13/6
f 9/15/7 16/23/8 10/16/7
f 12/18/9 9/15/8 11/17/10
f 14/20/11 12/335/8 13/21/11
f 16/23/10 14/20/8 15/22/12
f 13/24/13 11/17/13 10/16/13
f 9/26/14 12/336/14 14/27/14
f 17/29/15 24/37/15 18/30/15
f 19/31/11 18/30/11 20/32/11
f 21/34/16 20/337/16 22/35/16
f 23/36/7 22/35/7 24/37/7
f 20/38/13 18/30/13 24/37/13
f 19/40/14 21/338/14 23/41/14
f 25/43/15 32/51/15 26/44/15
f 27/45/11 26/44/11 28/46/11
f 29/48/16 28/339/16 30/49/16
f 31/50/7 30/49/7 32/51/7
f 28/52/13 26/44/13 32/51/13
f 27/54/14 29/340/14 31/55/14
f 33/57/15 40/65/15 34/58/15
f 35/59/11 34/58/11 36/60/11
f 37/62/16 36/341/16 38/63/16
f 39/64/7 38/63/7 40/65/7
f 36/66/13 34/58/13 40/65/13
f 35/68/14 37/342/14 39/69/14
f 41/71/15 48/79/15 42/72/15
f 43/73/11 42/72/11 44/74/11
f 45/76/16 44/343/16 46/77/16
f 47/78/7 46/77/7 48/79/7
f 44/80/13 42/72/13 48/79/13
f 43/82/14 45/344/14 47/83/14
f 49/85/15 56/93/15 50/86/15
f 51/87/11 50/86/11 52/88/11
f 53/90/16 52/345/16 54/91/16
f 55/92/7 54/91/7 56/93/7
f 52/94/13 50/86/13 56/93/13
f 51/96/14 53/346/14 55/97/14
f 57/99/15 64/107/15 58/100/15
f 59/101/11 58/100/11 60/102/11
f 61/104/16 60/347/16 62/105/16
f 63/106/7 62/105/7 64/107/7
f 60/108/13 58/100/13 64/107/13
f 59/110/14 61/348/14 63/111/14
f 65/113/15 72/121/15 66/114/15
f 67/115/11 66/114/11 68/116/11
f 69/118/16 68/349/16 70/119/16
f 65/113/7 71/120/7 70/119/7
f 68/122/13 66/114/13 72/121/13
f 67/124/14 69/350/14 71/125/14
f 73/127/15 80/135/15 74/128/15
f 75/129/11 74/128/11 76/130/11
f 77/132/16 76/351/16 78/133/16
f 73/127/7 79/134/7 78/133/7
f 76/136/13 74/128/13 80/135/13
f 75/138/14 77/352/14 79/139/14
f 81/141/15 88/149/15 82/142/15
f 83/143/11 82/142/11 84/144/11
f 85/146/16 84/353/16 86/147/16
f 87/148/7 86/147/7 88/149/7
f 84/150/13 82/142/13 88/149/13
f 83/152/14 85/354/14 87/153/14
f 89/155/15 96/163/15 90/156/15
f 91/157/11 90/156/11 92/158/11
f 93/160/16 92/355/16 94/161/16
f 95/162/7 94/161/7 96/163/7
f 92/164/13 90/156/13 96/163/13
f 91/166/14 93/356/14 95/167/14
f 97/169/15 104/177/15 98/170/15
f 99/171/11 98/170/11 100/172/11
f 101/174/16 100/357/16 102/175/16
f 103/176/7 102/175/7 104/177/7
f 100/178/13 98/170/13 104/177/13
f 99/180/14 101/358/14 103/181/14
f 105/183/8 112/191/8 106/184/17
f 108/186/18 105/183/8 107/185/19
f 110/188/8 108/359/8 109/189/20
f 112/191/19 110/188/8 111/190/18
f 111/192/5 109/360/5 107/185/5
f 105/193/6 108/361/6 110/194/6
f 113/196/1 120/204/1 114/197/1
f 115/198/2 114/197/2 116/199/2
f 117/201/3 116/362/3 118/202/3
f 119/203/4 118/202/4 120/204/4
f 118/205/5 116/363/5 114/197/5
f 115/206/6 117/364/6 119/207/6
f 121/209/1 128/217/1 122/210/1
f 123/211/2 122/210/2 124/212/2
f 125/214/3 124/365/3 126/215/3
f 127/216/4 126/215/4 128/217/4
f 124/218/5 122/210/5 128/217/5
f 123/220/6 125/366/6 127/221/6
f 129/223/1 136/231/1 130/224/1
f 131/225/2 130/224/2 132/226/2
f 133/228/3 132/367/3 134/229/3
f 135/230/4 134/229/4 136/231/4
f 134/232/5 132/368/5 130/224/5
f 131/233/6 133/369/6 135/234/6
f 137/236/1 144/244/1 138/237/1
f 139/238/2 138/237/2 140/239/2
f 141/241/3 140/370/3 142/242/3
f 143/243/4 142/242/4 144/244/4
f 140/245/5 138/237/5 144/244/5
f 137/247/6 139/371/6 141/248/6
f 145/250/1 152/258/1 146/251/1
f 147/252/2 146/251/2 148/253/2
f 149/255/3 148/372/3 150/256/3
f 151/257/4 150/256/4 152/258/4
f 148/259/5 146/251/5 152/258/5
f 147/261/6 149/373/6 151/262/6
f 153/264/1 160/272/1 154/265/1
f 155/266/2 154/265/2 156/267/2
f 157/269/3 156/374/3 158/270/3
f 159/271/4 158/270/4 160/272/4
f 158/273/5 156/375/5 154/265/5
f 155/274/6 157/376/6 159/275/6
f 161/277/1 168/285/1 162/278/1
f 163/279/2 162/278/2 164/280/2
f 165/282/3 164/377/3 166/283/3
f 167/284/4 166/283/4 168/285/4
f 164/286/5 162/278/5 168/285/5
f 161/288/6 163/378/6 165/289/6
f 169/291/1 176/299/1 170/292/1
f 171/293/2 170/292/2 172/294/2
f 173/296/3 172/379/3 174/297/3
f 175/298/4 174/297/4 176/299/4
f 172/300/5 170/292/5 176/299/5
f 169/302/6 171/380/6 173/303/6
f 177/305/1 184/313/1 178/306/1
f 179/307/2 178/306/2 180/308/2
f 181/310/3 180/381/3 182/311/3
f 183/312/4 182/311/4 184/313/4
f 180/314/5 178/306/5 184/313/5
f 179/316/6 181/382/6 183/317/6
f 185/319/1 192/327/1 186/320/1
f 187/321/2 186/320/2 188/322/2
f 189/324/3 188/383/3 190/325/3
f 191/326/4 190/325/4 192/327/4
f 188/328/5 186/320/5 192/327/5
f 187/330/6 189/384/6 191/331/6
