# Blender v3.5.0 OBJ File: ''
# www.blender.org
mtllib x01_boots_broken.mtl
o Boots
v 0.199876 -0.004912 -0.189382
v 0.418209 0.120088 -0.067600
v 0.418209 -0.004912 -0.067601
v 0.326873 0.120088 0.096149
v 0.326873 -0.004912 0.096149
v 0.108540 0.120088 -0.025632
v 0.108540 -0.004912 -0.025632
v 0.199876 0.120088 -0.189382
v 0.326873 0.057588 0.096149
v 0.108540 0.057588 -0.025632
v 0.326873 0.057588 0.096149
v 0.205092 0.057588 0.314482
v 0.205092 0.057588 0.314482
v -0.013241 0.057588 0.192701
v -0.013241 0.057588 0.192701
v 0.108540 0.057588 -0.025632
v 0.108540 -0.011162 -0.025632
v 0.326873 0.113838 0.096149
v 0.326873 -0.011162 0.096149
v 0.205092 0.113838 0.314482
v 0.205092 -0.011162 0.314482
v -0.013241 0.113838 0.192701
v -0.013241 -0.011162 0.192701
v 0.108540 0.113838 -0.025632
v 0.196722 0.026338 -0.119576
v 0.360472 0.151338 -0.028240
v 0.360472 0.026338 -0.028240
v 0.299581 0.151338 0.080927
v 0.299581 0.026338 0.080927
v 0.135832 0.151338 -0.010409
v 0.135832 0.026338 -0.010409
v 0.196722 0.151338 -0.119576
v 0.081248 0.007588 -0.040854
v 0.135832 0.132588 -0.010409
v 0.135832 0.007588 -0.010409
v 0.014050 0.132588 0.207924
v 0.014050 0.007588 0.207924
v -0.040533 0.132588 0.177479
v -0.040533 0.007588 0.177479
v 0.081248 0.132588 -0.040854
v 0.299581 -0.004912 0.080927
v 0.354165 0.120088 0.111372
v 0.354165 -0.004912 0.111372
v 0.232384 0.120088 0.329705
v 0.232384 -0.004912 0.329705
v 0.177800 0.120088 0.299260
v 0.177800 -0.004912 0.299260
v 0.299581 0.120088 0.080927
v -0.013241 -0.004912 0.192701
v 0.205092 0.120088 0.314482
v 0.205092 -0.004912 0.314482
v 0.174647 0.120088 0.369066
v 0.174647 -0.004912 0.369066
v -0.043686 0.120088 0.247285
v -0.043686 -0.004912 0.247285
v -0.013241 0.120088 0.192701
v 0.026119 0.057588 0.250438
v 0.135286 0.182588 0.311329
v 0.135286 0.057588 0.311329
v 0.104841 0.182588 0.365912
v 0.104841 0.057588 0.365912
v -0.004326 0.182588 0.305021
v -0.004326 0.057588 0.305021
v 0.026119 0.182588 0.250438
v -0.403826 -0.161517 -0.121763
v -0.153826 -0.043089 -0.161762
v -0.153826 -0.161517 -0.121763
v -0.153826 0.016909 0.015879
v -0.153826 -0.101518 0.055878
v -0.403826 0.016909 0.015879
v -0.403826 -0.101518 0.055878
v -0.403826 -0.043089 -0.161762
v -0.153826 -0.042304 0.035879
v -0.403826 -0.042304 0.035879
v -0.153826 -0.042304 0.035879
v -0.153826 0.037694 0.272734
v -0.153826 0.037694 0.272734
v -0.403826 0.037694 0.272734
v -0.403826 0.037694 0.272734
v -0.403826 -0.042304 0.035879
v -0.185076 -0.101518 0.055878
v -0.122576 0.016909 0.015879
v -0.122576 -0.101518 0.055878
v -0.122576 0.096907 0.252734
v -0.122576 -0.021520 0.292733
v -0.185076 0.096907 0.252734
v -0.185076 -0.021520 0.292733
v -0.185076 0.016909 0.015879
v -0.372576 -0.111911 -0.072549
v -0.185076 0.006517 -0.112548
v -0.185076 -0.111911 -0.072549
v -0.185076 0.046516 0.005879
v -0.185076 -0.071911 0.045878
v -0.372576 0.046516 0.005879
v -0.372576 -0.071911 0.045878
v -0.372576 0.006517 -0.112548
v -0.435076 -0.101518 0.055878
v -0.372576 0.016909 0.015879
v -0.372576 -0.101518 0.055878
v -0.372576 0.096907 0.252734
v -0.372576 -0.021520 0.292733
v -0.435076 0.096907 0.252734
v -0.435076 -0.021520 0.292733
v -0.435076 0.016909 0.015879
v -0.403826 -0.107440 0.057878
v -0.153826 0.010988 0.017879
v -0.153826 -0.107440 0.057878
v -0.153826 0.090986 0.254734
v -0.153826 -0.027442 0.294733
v -0.403826 0.090986 0.254734
v -0.403826 -0.027442 0.294733
v -0.403826 0.010988 0.017879
v -0.403826 -0.021520 0.292733
v -0.153826 0.096907 0.252734
v -0.153826 -0.021520 0.292733
v -0.153826 0.116907 0.311948
v -0.153826 -0.001520 0.351947
v -0.403826 0.116907 0.311948
v -0.403826 -0.001520 0.351947
v -0.403826 0.096907 0.252734
v -0.341326 0.047693 0.302341
v -0.216326 0.166121 0.262341
v -0.216326 0.047693 0.302341
v -0.216326 0.186121 0.321555
v -0.216326 0.067693 0.361554
v -0.341326 0.186121 0.321555
v -0.341326 0.067693 0.361554
v -0.341326 0.166121 0.262341
vt 0.398438 0.773438
vt 0.367188 0.789062
vt 0.367188 0.773438
vt 0.343750 0.789062
vt 0.343750 0.773438
vt 0.453125 0.773438
vt 0.421875 0.789062
vt 0.421875 0.773438
vt 0.398438 0.789062
vt 0.367188 0.812500
vt 0.398438 0.812500
vt 0.398438 0.789062
vt 0.429688 0.812500
vt 0.429688 0.789062
vt 0.312500 0.640625
vt 0.343750 0.640625
vt 0.312500 0.640625
vt 0.281250 0.640625
vt 0.281250 0.640625
vt 0.375000 0.640625
vt 0.406250 0.640625
vt 0.375000 0.640625
vt 0.343750 0.640625
vt 0.312500 0.671875
vt 0.343750 0.671875
vt 0.343750 0.640625
vt 0.375000 0.671875
vt 0.375000 0.640625
vt 0.281250 0.781250
vt 0.250000 0.796875
vt 0.250000 0.781250
vt 0.218750 0.796875
vt 0.218750 0.781250
vt 0.343750 0.781250
vt 0.312500 0.796875
vt 0.312500 0.781250
vt 0.281250 0.796875
vt 0.250000 0.828125
vt 0.281250 0.828125
vt 0.281250 0.796875
vt 0.312500 0.828125
vt 0.312500 0.796875
vt 0.195312 0.453125
vt 0.171875 0.468750
vt 0.171875 0.453125
vt 0.156250 0.468750
vt 0.156250 0.453125
vt 0.234375 0.453125
vt 0.210938 0.468750
vt 0.210938 0.453125
vt 0.195312 0.468750
vt 0.171875 0.484375
vt 0.195312 0.484375
vt 0.195312 0.468750
vt 0.218750 0.484375
vt 0.218750 0.468750
vt 0.039062 0.492188
vt 0.031250 0.507812
vt 0.031250 0.492188
vt 0.000000 0.507812
vt 0.000000 0.492188
vt 0.078125 0.492188
vt 0.070312 0.507812
vt 0.070312 0.492188
vt 0.039062 0.507812
vt 0.031250 0.539062
vt 0.039062 0.539062
vt 0.039062 0.507812
vt 0.046875 0.539062
vt 0.046875 0.507812
vt 0.523438 0.867188
vt 0.515625 0.882812
vt 0.515625 0.867188
vt 0.484375 0.882812
vt 0.484375 0.867188
vt 0.562500 0.867188
vt 0.554688 0.882812
vt 0.554688 0.867188
vt 0.523438 0.882812
vt 0.515625 0.914062
vt 0.523438 0.914062
vt 0.523438 0.882812
vt 0.531250 0.914062
vt 0.531250 0.882812
vt 0.117188 0.445312
vt 0.085938 0.460938
vt 0.085938 0.445312
vt 0.078125 0.460938
vt 0.078125 0.445312
vt 0.156250 0.445312
vt 0.125000 0.460938
vt 0.125000 0.445312
vt 0.117188 0.460938
vt 0.085938 0.468750
vt 0.117188 0.468750
vt 0.117188 0.460938
vt 0.148438 0.468750
vt 0.148438 0.460938
vt 0.304688 0.390625
vt 0.289062 0.406250
vt 0.289062 0.390625
vt 0.281250 0.406250
vt 0.281250 0.390625
vt 0.328125 0.390625
vt 0.312500 0.406250
vt 0.312500 0.390625
vt 0.304688 0.406250
vt 0.289062 0.414062
vt 0.304688 0.414062
vt 0.304688 0.406250
vt 0.320312 0.414062
vt 0.320312 0.406250
vt 0.453125 0.789062
vt 0.398438 0.812500
vt 0.406250 0.640625
vt 0.343750 0.671875
vt 0.343750 0.796875
vt 0.281250 0.828125
vt 0.234375 0.468750
vt 0.195312 0.484375
vt 0.078125 0.507812
vt 0.039062 0.539062
vt 0.562500 0.882812
vt 0.523438 0.914062
vt 0.156250 0.460938
vt 0.117188 0.468750
vt 0.328125 0.406250
vt 0.304688 0.414062
vt 0.398438 0.734375
vt 0.367188 0.750000
vt 0.367188 0.734375
vt 0.343750 0.750000
vt 0.343750 0.734375
vt 0.453125 0.734375
vt 0.421875 0.750000
vt 0.421875 0.734375
vt 0.398438 0.750000
vt 0.367188 0.773438
vt 0.398438 0.773438
vt 0.398438 0.750000
vt 0.429688 0.773438
vt 0.429688 0.750000
vt 0.312500 0.640625
vt 0.343750 0.640625
vt 0.312500 0.640625
vt 0.281250 0.640625
vt 0.281250 0.640625
vt 0.375000 0.640625
vt 0.406250 0.640625
vt 0.375000 0.640625
vt 0.343750 0.640625
vt 0.312500 0.671875
vt 0.343750 0.671875
vt 0.343750 0.640625
vt 0.375000 0.671875
vt 0.375000 0.640625
vt 0.523438 0.867188
vt 0.515625 0.882812
vt 0.515625 0.867188
vt 0.484375 0.882812
vt 0.484375 0.867188
vt 0.562500 0.867188
vt 0.554688 0.882812
vt 0.554688 0.867188
vt 0.523438 0.882812
vt 0.515625 0.914062
vt 0.523438 0.914062
vt 0.523438 0.882812
vt 0.531250 0.914062
vt 0.531250 0.882812
vt 0.554688 0.664062
vt 0.531250 0.679688
vt 0.531250 0.664062
vt 0.515625 0.679688
vt 0.515625 0.664062
vt 0.593750 0.664062
vt 0.570312 0.679688
vt 0.570312 0.664062
vt 0.554688 0.679688
vt 0.531250 0.695312
vt 0.554688 0.695312
vt 0.554688 0.679688
vt 0.578125 0.695312
vt 0.578125 0.679688
vt 0.523438 0.820312
vt 0.515625 0.835938
vt 0.515625 0.820312
vt 0.484375 0.835938
vt 0.484375 0.820312
vt 0.562500 0.820312
vt 0.554688 0.835938
vt 0.554688 0.820312
vt 0.523438 0.835938
vt 0.515625 0.867188
vt 0.523438 0.867188
vt 0.523438 0.835938
vt 0.531250 0.867188
vt 0.531250 0.835938
vt 0.281250 0.734375
vt 0.250000 0.750000
vt 0.250000 0.734375
vt 0.218750 0.750000
vt 0.218750 0.734375
vt 0.343750 0.734375
vt 0.312500 0.750000
vt 0.312500 0.734375
vt 0.281250 0.750000
vt 0.250000 0.781250
vt 0.281250 0.781250
vt 0.281250 0.750000
vt 0.312500 0.781250
vt 0.312500 0.750000
vt 0.570312 0.796875
vt 0.539062 0.812500
vt 0.539062 0.796875
vt 0.531250 0.812500
vt 0.531250 0.796875
vt 0.609375 0.796875
vt 0.578125 0.812500
vt 0.578125 0.796875
vt 0.570312 0.812500
vt 0.539062 0.820312
vt 0.570312 0.820312
vt 0.570312 0.812500
vt 0.601562 0.820312
vt 0.601562 0.812500
vt 0.414062 0.390625
vt 0.398438 0.406250
vt 0.398438 0.390625
vt 0.390625 0.406250
vt 0.390625 0.390625
vt 0.437500 0.390625
vt 0.421875 0.406250
vt 0.421875 0.390625
vt 0.414062 0.406250
vt 0.398438 0.414062
vt 0.414062 0.414062
vt 0.414062 0.406250
vt 0.429688 0.414062
vt 0.429688 0.406250
vt 0.453125 0.750000
vt 0.398438 0.773438
vt 0.406250 0.640625
vt 0.343750 0.671875
vt 0.562500 0.882812
vt 0.523438 0.914062
vt 0.593750 0.679688
vt 0.554688 0.695312
vt 0.562500 0.835938
vt 0.523438 0.867188
vt 0.343750 0.750000
vt 0.281250 0.781250
vt 0.609375 0.812500
vt 0.570312 0.820312
vt 0.437500 0.406250
vt 0.414062 0.414062
vn 0.4871 0.0000 -0.8733
vn 0.8733 -0.0000 0.4871
vn -0.4871 0.0000 0.8733
vn -0.8733 -0.0000 -0.4871
vn 0.0000 1.0000 -0.0000
vn -0.0000 -1.0000 0.0000
vn 0.1273 -0.0527 -0.9905
vn -0.5570 0.2307 -0.7979
vn 0.0000 0.0000 1.0000
vn 0.1274 -0.0528 -0.9904
vn 0.7371 -0.3053 -0.6029
vn 0.0000 0.0000 -1.0000
vn 0.0000 -0.3200 -0.9474
vn 1.0000 0.0000 0.0000
vn 0.0000 0.3200 0.9474
vn -1.0000 0.0000 0.0000
vn 0.0000 0.9474 -0.3200
vn 0.0000 -0.9474 0.3200
vn 0.8668 -0.0003 0.4987
vn -0.8668 0.0003 0.4987
vn -0.0872 -0.2105 -0.9737
vn -0.3251 -0.7849 -0.5275
usemtl m_6df4ef13-2f4a-30c7-588e-bbf0fd248c75.007
s 1
f 1/1/1 2/2/1 3/3/1
f 3/3/2 4/4/2 5/5/2
f 5/6/3 6/7/3 7/8/3
f 7/8/4 8/9/4 1/1/4
f 4/10/5 8/9/5 6/11/5
f 3/12/6 7/13/6 1/14/6
f 9/15/7 10/16/8 11/17/9
f 12/18/10 11/17/11 13/19/12
f 14/20/9 13/21/9 15/22/9
f 16/23/11 15/22/10 10/16/12
f 13/24/5 10/16/5 15/25/5
f 9/26/6 14/27/6 16/28/6
f 17/29/1 18/30/1 19/31/1
f 19/31/2 20/32/2 21/33/2
f 21/34/3 22/35/3 23/36/3
f 23/36/4 24/37/4 17/29/4
f 20/38/5 24/37/5 22/39/5
f 19/40/6 23/41/6 17/42/6
f 25/43/1 26/44/1 27/45/1
f 27/45/2 28/46/2 29/47/2
f 29/48/3 30/49/3 31/50/3
f 31/50/4 32/51/4 25/43/4
f 28/52/5 32/51/5 30/53/5
f 27/54/6 31/55/6 25/56/6
f 33/57/1 34/58/1 35/59/1
f 35/59/2 36/60/2 37/61/2
f 37/62/3 38/63/3 39/64/3
f 39/64/4 40/65/4 33/57/4
f 36/66/5 40/65/5 38/67/5
f 35/68/6 39/69/6 33/70/6
f 41/71/1 42/72/1 43/73/1
f 43/73/2 44/74/2 45/75/2
f 45/76/3 46/77/3 47/78/3
f 47/78/4 48/79/4 41/71/4
f 44/80/5 48/79/5 46/81/5
f 43/82/6 47/83/6 41/84/6
f 49/85/1 50/86/1 51/87/1
f 51/87/2 52/88/2 53/89/2
f 53/90/3 54/91/3 55/92/3
f 55/92/4 56/93/4 49/85/4
f 52/94/5 56/93/5 54/95/5
f 51/96/6 55/97/6 49/98/6
f 57/99/1 58/100/1 59/101/1
f 59/101/2 60/102/2 61/103/2
f 61/104/3 62/105/3 63/106/3
f 63/106/4 64/107/4 57/99/4
f 60/108/5 64/107/5 62/109/5
f 59/110/6 63/111/6 57/112/6
f 1/1/1 8/9/1 2/2/1
f 3/3/2 2/2/2 4/4/2
f 5/6/3 4/113/3 6/7/3
f 7/8/4 6/7/4 8/9/4
f 4/10/5 2/2/5 8/9/5
f 3/12/6 5/114/6 7/13/6
f 9/15/7 16/23/9 10/16/8
f 12/18/10 9/15/12 11/17/11
f 14/20/9 12/115/9 13/21/9
f 16/23/11 14/20/12 15/22/10
f 13/24/5 11/17/5 10/16/5
f 9/26/6 12/116/6 14/27/6
f 17/29/1 24/37/1 18/30/1
f 19/31/2 18/30/2 20/32/2
f 21/34/3 20/117/3 22/35/3
f 23/36/4 22/35/4 24/37/4
f 20/38/5 18/30/5 24/37/5
f 19/40/6 21/118/6 23/41/6
f 25/43/1 32/51/1 26/44/1
f 27/45/2 26/44/2 28/46/2
f 29/48/3 28/119/3 30/49/3
f 31/50/4 30/49/4 32/51/4
f 28/52/5 26/44/5 32/51/5
f 27/54/6 29/120/6 31/55/6
f 33/57/1 40/65/1 34/58/1
f 35/59/2 34/58/2 36/60/2
f 37/62/3 36/121/3 38/63/3
f 39/64/4 38/63/4 40/65/4
f 36/66/5 34/58/5 40/65/5
f 35/68/6 37/122/6 39/69/6
f 41/71/1 48/79/1 42/72/1
f 43/73/2 42/72/2 44/74/2
f 45/76/3 44/123/3 46/77/3
f 47/78/4 46/77/4 48/79/4
f 44/80/5 42/72/5 48/79/5
f 43/82/6 45/124/6 47/83/6
f 49/85/1 56/93/1 50/86/1
f 51/87/2 50/86/2 52/88/2
f 53/90/3 52/125/3 54/91/3
f 55/92/4 54/91/4 56/93/4
f 52/94/5 50/86/5 56/93/5
f 51/96/6 53/126/6 55/97/6
f 57/99/1 64/107/1 58/100/1
f 59/101/2 58/100/2 60/102/2
f 61/104/3 60/127/3 62/105/3
f 63/106/4 62/105/4 64/107/4
f 60/108/5 58/100/5 64/107/5
f 59/110/6 61/128/6 63/111/6
usemtl m_6df4ef13-2f4a-30c7-588e-bbf0fd248c75.006
f 65/129/13 66/130/13 67/131/13
f 67/131/14 68/132/14 69/133/14
f 69/134/15 70/135/15 71/136/15
f 71/136/16 72/137/16 65/129/16
f 68/138/17 72/137/17 70/139/17
f 67/140/18 71/141/18 65/142/18
f 73/143/19 74/144/20 75/145/9
f 76/146/21 75/145/22 77/147/12
f 78/148/9 77/149/9 79/150/9
f 80/151/22 79/150/21 74/144/12
f 77/152/17 74/144/17 79/153/17
f 73/154/18 78/155/18 80/156/18
f 81/157/13 82/158/13 83/159/13
f 83/159/14 84/160/14 85/161/14
f 85/162/15 86/163/15 87/164/15
f 87/164/16 88/165/16 81/157/16
f 84/166/17 88/165/17 86/167/17
f 83/168/18 87/169/18 81/170/18
f 89/171/13 90/172/13 91/173/13
f 91/173/14 92/174/14 93/175/14
f 93/176/15 94/177/15 95/178/15
f 95/178/16 96/179/16 89/171/16
f 92/180/17 96/179/17 94/181/17
f 91/182/18 95/183/18 89/184/18
f 97/185/13 98/186/13 99/187/13
f 99/187/14 100/188/14 101/189/14
f 101/190/15 102/191/15 103/192/15
f 103/192/16 104/193/16 97/185/16
f 100/194/17 104/193/17 102/195/17
f 99/196/18 103/197/18 97/198/18
f 105/199/13 106/200/13 107/201/13
f 107/201/14 108/202/14 109/203/14
f 109/204/15 110/205/15 111/206/15
f 111/206/16 112/207/16 105/199/16
f 108/208/17 112/207/17 110/209/17
f 107/210/18 111/211/18 105/212/18
f 113/213/13 114/214/13 115/215/13
f 115/215/14 116/216/14 117/217/14
f 117/218/15 118/219/15 119/220/15
f 119/220/16 120/221/16 113/213/16
f 116/222/17 120/221/17 118/223/17
f 115/224/18 119/225/18 113/226/18
f 121/227/13 122/228/13 123/229/13
f 123/229/14 124/230/14 125/231/14
f 125/232/15 126/233/15 127/234/15
f 127/234/16 128/235/16 121/227/16
f 124/236/17 128/235/17 126/237/17
f 123/238/18 127/239/18 121/240/18
f 65/129/13 72/137/13 66/130/13
f 67/131/14 66/130/14 68/132/14
f 69/134/15 68/241/15 70/135/15
f 71/136/16 70/135/16 72/137/16
f 68/138/17 66/130/17 72/137/17
f 67/140/18 69/242/18 71/141/18
f 73/143/19 80/151/9 74/144/20
f 76/146/21 73/143/12 75/145/22
f 78/148/9 76/243/9 77/149/9
f 80/151/22 78/148/12 79/150/21
f 77/152/17 75/145/17 74/144/17
f 73/154/18 76/244/18 78/155/18
f 81/157/13 88/165/13 82/158/13
f 83/159/14 82/158/14 84/160/14
f 85/162/15 84/245/15 86/163/15
f 87/164/16 86/163/16 88/165/16
f 84/166/17 82/158/17 88/165/17
f 83/168/18 85/246/18 87/169/18
f 89/171/13 96/179/13 90/172/13
f 91/173/14 90/172/14 92/174/14
f 93/176/15 92/247/15 94/177/15
f 95/178/16 94/177/16 96/179/16
f 92/180/17 90/172/17 96/179/17
f 91/182/18 93/248/18 95/183/18
f 97/185/13 104/193/13 98/186/13
f 99/187/14 98/186/14 100/188/14
f 101/190/15 100/249/15 102/191/15
f 103/192/16 102/191/16 104/193/16
f 100/194/17 98/186/17 104/193/17
f 99/196/18 101/250/18 103/197/18
f 105/199/13 112/207/13 106/200/13
f 107/201/14 106/200/14 108/202/14
f 109/204/15 108/251/15 110/205/15
f 111/206/16 110/205/16 112/207/16
f 108/208/17 106/200/17 112/207/17
f 107/210/18 109/252/18 111/211/18
f 113/213/13 120/221/13 114/214/13
f 115/215/14 114/214/14 116/216/14
f 117/218/15 116/253/15 118/219/15
f 119/220/16 118/219/16 120/221/16
f 116/222/17 114/214/17 120/221/17
f 115/224/18 117/254/18 119/225/18
f 121/227/13 128/235/13 122/228/13
f 123/229/14 122/228/14 124/230/14
f 125/232/15 124/255/15 126/233/15
f 127/234/16 126/233/16 128/235/16
f 124/236/17 122/228/17 128/235/17
f 123/238/18 125/256/18 127/239/18
